<?xml version="1.0" standalone="no"?>
<!DOCTYPE svg PUBLIC "-//W3C//DTD SVG 20010904//EN"
 "http://www.w3.org/TR/2001/REC-SVG-20010904/DTD/svg10.dtd">
<svg version="1.0" xmlns="http://www.w3.org/2000/svg"
 width="256.000000pt" height="256.000000pt" viewBox="0 0 256.000000 256.000000"
 preserveAspectRatio="xMidYMid meet">
<metadata>
Created by potrace 1.14, written by Peter Selinger 2001-2017
</metadata>
<g transform="translate(0.000000,256.000000) scale(0.100000,-0.100000)"
fill="#000000" stroke="none">
<path d="M1795 2496 c-135 -59 -184 -226 -102 -347 l23 -34 -102 -172 -102
-171 50 -31 c27 -17 51 -31 53 -31 2 0 50 76 106 169 l101 170 57 -1 c206 -3
316 228 182 383 -19 23 -53 50 -75 60 -48 22 -147 24 -191 5z"/>
<path d="M484 2151 c-169 -98 -151 -352 31 -421 44 -17 139 -14 176 5 l32 17
71 -71 c39 -39 75 -71 80 -71 5 0 27 19 48 43 l40 42 -78 71 -77 70 13 38 c20
60 9 146 -26 202 -62 101 -204 135 -310 75z"/>
<path d="M1207 1679 c-188 -44 -318 -223 -304 -419 22 -328 413 -486 662 -267
86 75 143 218 131 328 -25 244 -256 413 -489 358z"/>
<path d="M2235 1401 c-36 -16 -93 -70 -120 -114 -9 -14 -22 -14 -149 -1 -76 8
-140 14 -141 12 -1 -2 -5 -29 -8 -60 -5 -54 -4 -58 16 -62 22 -5 231 -26 253
-26 6 0 16 -18 23 -41 7 -24 30 -59 56 -84 111 -112 287 -89 365 48 69 121 16
278 -112 331 -50 21 -134 20 -183 -3z"/>
<path d="M597 1121 l-168 -56 -40 37 c-147 140 -388 36 -388 -167 -1 -136 98
-235 231 -235 120 1 212 84 233 212 l6 37 172 57 c95 31 173 58 175 59 7 6
-34 115 -43 114 -5 0 -86 -26 -178 -58z"/>
<path d="M1403 778 c-28 -6 -43 -15 -43 -24 0 -14 44 -217 55 -254 3 -10 -7
-23 -25 -34 -68 -39 -109 -147 -90 -234 15 -67 52 -117 113 -152 90 -52 208
-37 281 36 128 128 58 363 -116 390 -22 4 -39 13 -42 23 -3 9 -17 71 -32 139
-30 133 -25 127 -101 110z"/>
</g>
</svg>
